# xmcd CD database file
#
# Track frame offsets:
#	187
#	61997
#	90115
#	126985
#	193475
#	218172
#
# Disc length: 3387 seconds
#
# Revision: 3
# Processed by: cddbd v1.5PL3 Copyright (c) Steve Scherf et al.
# Submitted via: CDex 1.51
#
DISCID=530d3906
DTITLE=Ughi Paganini - Violin Concertos
DYEAR=1900
DGENRE=Classical
TTITLE0=Violin Concerto No.2 in B Minor, Op. 7 - Allegro Maestoso
TTITLE1=Violin Concerto No.2 in B Minor, Op. 7 - Adagio
TTITLE2=Violin Concerto No.2 in B Minor, Op. 7 - Rond  Andantino
TTITLE3=Violin Concerto No.4 in D Minor - Allegro Maestoso
TTITLE4=Violin Concerto No.4 in D Minor - Adagio Flebile
TTITLE5=Violin Concerto No.4 in D Minor - Rond  (Andantino)
EXTD=
EXTT0=
EXTT1=
EXTT2=
EXTT3=
EXTT4=
EXTT5=
PLAYORDER=
